<svg width="50" height="50" viewBox="0 0 50 50" fill="none" xmlns="http://www.w3.org/2000/svg">
<circle cx="25" cy="25" r="25" fill="#27C8A0"/>
<path d="M23.4824 19.2703H27.2326C27.3321 19.2703 27.4274 19.2311 27.4978 19.1613C27.5681 19.0915 27.6076 18.9968 27.6076 18.8981C27.6076 18.7994 27.5681 18.7047 27.4978 18.6349C27.4274 18.5651 27.3321 18.5259 27.2326 18.5259H23.4824C23.383 18.5259 23.2876 18.5651 23.2173 18.6349C23.1469 18.7047 23.1074 18.7994 23.1074 18.8981C23.1074 18.9968 23.1469 19.0915 23.2173 19.1613C23.2876 19.2311 23.383 19.2703 23.4824 19.2703Z" fill="white"/>
<path d="M21.9856 18.5259H16.7354C16.6359 18.5259 16.5405 18.5651 16.4702 18.6349C16.3999 18.7047 16.3604 18.7994 16.3604 18.8981C16.3604 18.9968 16.3999 19.0915 16.4702 19.1613C16.5405 19.2311 16.6359 19.2703 16.7354 19.2703H21.9856C22.0851 19.2703 22.1805 19.2311 22.2508 19.1613C22.3211 19.0915 22.3606 18.9968 22.3606 18.8981C22.3606 18.7994 22.3211 18.7047 22.2508 18.6349C22.1805 18.5651 22.0851 18.5259 21.9856 18.5259Z" fill="white"/>
<path d="M16.7354 22.4539H21.2356C21.335 22.4539 21.4304 22.4147 21.5008 22.3449C21.5711 22.2751 21.6106 22.1804 21.6106 22.0817C21.6106 21.983 21.5711 21.8883 21.5008 21.8185C21.4304 21.7487 21.335 21.7095 21.2356 21.7095H16.7354C16.6861 21.7095 16.6373 21.7191 16.5918 21.7378C16.5464 21.7565 16.505 21.7839 16.4702 21.8185C16.4354 21.8531 16.4077 21.8941 16.3889 21.9393C16.3701 21.9844 16.3604 22.0328 16.3604 22.0817C16.3604 22.1306 16.3701 22.179 16.3889 22.2241C16.4077 22.2693 16.4354 22.3103 16.4702 22.3449C16.505 22.3795 16.5464 22.4069 16.5918 22.4256C16.6373 22.4443 16.6861 22.4539 16.7354 22.4539Z" fill="white"/>
<path d="M24.5679 21.7095H22.7354C22.6359 21.7095 22.5405 21.7487 22.4702 21.8185C22.3999 21.8883 22.3604 21.983 22.3604 22.0817C22.3604 22.1804 22.3999 22.2751 22.4702 22.3449C22.5405 22.4147 22.6359 22.4539 22.7354 22.4539H24.5679C24.6673 22.4539 24.7627 22.4147 24.833 22.3449C24.9034 22.2751 24.9429 22.1804 24.9429 22.0817C24.9429 21.983 24.9034 21.8883 24.833 21.8185C24.7627 21.7487 24.6673 21.7095 24.5679 21.7095Z" fill="white"/>
<path d="M21.6088 27.9664H21.6063C21.4293 27.9691 21.2522 27.9731 21.0752 27.9771L20.9395 27.9801C20.8554 27.982 20.7713 27.9858 20.6873 27.9896L20.6729 27.9903C20.5376 27.9965 20.4278 27.9998 20.3178 28.0011C20.3357 27.767 20.3138 27.5317 20.253 27.3049L20.2441 27.2778C20.1838 27.0794 20.051 26.9105 19.8717 26.8043C19.6924 26.6982 19.4796 26.6623 19.275 26.7039C19.2396 26.7111 19.2046 26.7202 19.1702 26.7313C19.17 26.5234 19.1231 26.3181 19.0328 26.1305C18.9425 25.943 18.8111 25.7778 18.6483 25.647C18.4854 25.5163 18.2952 25.4233 18.0915 25.3748C17.8878 25.3264 17.6758 25.3237 17.4709 25.367C17.2661 25.4103 17.0736 25.4985 16.9074 25.6251C16.7413 25.7517 16.6057 25.9135 16.5106 26.0988C16.4156 26.284 16.3634 26.488 16.3579 26.6958C16.3524 26.9037 16.3938 27.1101 16.4789 27.3L16.8414 28.1364C16.8768 28.2175 16.9431 28.2814 17.0259 28.314C17.1086 28.3466 17.201 28.3452 17.2828 28.3103C17.3645 28.2754 17.429 28.2097 17.462 28.1276C17.4951 28.0456 17.494 27.9539 17.459 27.8727L17.0964 27.0363C17.0247 26.8816 17.0098 26.7069 17.0544 26.5425C17.0991 26.3781 17.2004 26.2344 17.3407 26.1365C17.4619 26.0571 17.6039 26.0144 17.7491 26.0137C17.8944 26.0131 18.0367 26.0545 18.1586 26.1329C18.2806 26.2113 18.3768 26.3232 18.4357 26.4551C18.4945 26.5869 18.5133 26.7329 18.4898 26.8752L18.3248 27.8735L18.3196 27.8957C18.315 27.9152 18.3106 27.9347 18.3054 27.954C18.2827 28.0388 18.2945 28.1291 18.3384 28.2054C18.3823 28.2816 18.4547 28.3376 18.5399 28.3612C18.6251 28.3847 18.7162 28.374 18.7935 28.3314C18.8708 28.2887 18.9281 28.2174 18.9528 28.1332C18.9633 28.1093 18.9709 28.0842 18.9753 28.0585L18.9841 28.0051L18.9906 27.9787C18.9937 27.9661 18.9968 27.9535 18.9997 27.9407C19.0218 27.821 19.0572 27.704 19.1052 27.592C19.136 27.5337 19.179 27.4825 19.2314 27.4421C19.2838 27.4016 19.3444 27.3729 19.409 27.3577C19.5444 27.3303 19.599 27.4672 19.6081 27.4938L19.6113 27.5031C19.6485 27.6627 19.6601 27.8272 19.6456 27.9903C19.6317 28.1462 19.6684 28.3025 19.7504 28.4362C19.808 28.5148 19.885 28.5775 19.974 28.6182C20.063 28.6589 20.1611 28.6762 20.2587 28.6685L20.3144 28.6682C20.4431 28.6676 20.5721 28.6627 20.6961 28.6571L20.7042 28.6567C20.7877 28.6529 20.8712 28.649 20.9545 28.6471L21.0447 28.6451C21.2354 28.6408 21.4261 28.6365 21.6169 28.6336C21.7058 28.6322 21.7905 28.5958 21.8524 28.5326C21.9144 28.4693 21.9486 28.3842 21.9476 28.296C21.9465 28.2078 21.9103 28.1235 21.8468 28.0618C21.7833 28 21.6977 27.9657 21.6088 27.9664Z" fill="white"/>
<path d="M28.9504 27.857C28.7506 27.8909 28.5453 27.8671 28.3586 27.7886C28.172 27.7101 28.012 27.5801 27.8975 27.4141L27.8247 27.3081L26.8545 29.3192L27.7898 29.2825L28.3475 30.0288L29.4314 27.7825L29.4189 27.7772L28.9504 27.857Z" fill="white"/>
<path d="M31.3333 27.4512L30.9827 27.7701C30.7872 27.9473 30.5319 28.0454 30.2672 28.0451C30.2575 28.0451 30.248 28.0449 30.2383 28.0447L31.196 30.0297L31.7535 29.2834L32.6888 29.3201L31.7528 27.3799L31.3333 27.4512Z" fill="white"/>
<path d="M32.7816 24.2979L32.9377 23.7118C32.9668 23.6023 32.9636 23.4869 32.9285 23.3791C32.8933 23.2714 32.8277 23.176 32.7394 23.1042L32.2668 22.7199L32.0786 22.1431C32.0434 22.0354 31.9778 21.94 31.8895 21.8682C31.8012 21.7964 31.694 21.7514 31.5806 21.7383L30.9735 21.6685L30.5009 21.2842C30.4126 21.2124 30.3054 21.1674 30.192 21.1543C30.0786 21.1413 29.9638 21.1609 29.8613 21.2107L29.3125 21.4775L28.7055 21.4077C28.5921 21.3947 28.4773 21.4143 28.3748 21.4641C28.2723 21.5139 28.1864 21.592 28.1274 21.6888L27.8112 22.2076L27.2624 22.4745C27.1599 22.5243 27.074 22.6023 27.015 22.6992C26.9559 22.7961 26.9262 22.9078 26.9293 23.021L26.946 23.627L26.6298 24.1458C26.5708 24.2427 26.541 24.3544 26.5442 24.4675C26.5473 24.5807 26.5832 24.6906 26.6475 24.7842L26.9918 25.285L27.0086 25.891C27.0117 26.0042 27.0476 26.1141 27.1119 26.2076C27.1762 26.3011 27.2663 26.3744 27.3714 26.4186L27.9341 26.6552L28.2784 27.156C28.3428 27.2496 28.4328 27.3228 28.5379 27.367C28.643 27.4112 28.7587 27.4245 28.8712 27.4053L29.4735 27.3026L30.0362 27.5392C30.1413 27.5834 30.257 27.5967 30.3695 27.5776C30.482 27.5584 30.5865 27.5075 30.6707 27.4311L31.1215 27.0217L31.7238 26.919C31.8363 26.8998 31.9408 26.849 32.025 26.7725C32.1092 26.696 32.1695 26.5972 32.1986 26.4877L32.3547 25.9016L32.8054 25.4922C32.8896 25.4157 32.9499 25.3169 32.979 25.2074C33.0081 25.0979 33.0049 24.9825 32.9698 24.8747L32.7816 24.2979Z" fill="white"/>
<path d="M36.9996 18.1126C37.0081 17.7657 36.8825 17.4287 36.6485 17.1708C35.6426 16.0223 34.5667 14.7895 33.5148 13.5561C33.3953 13.409 33.2428 13.2917 33.0695 13.2135C32.8961 13.1353 32.7068 13.0985 32.5165 13.1059L32.509 13.1059C31.3579 13.1106 30.1872 13.1095 29.0551 13.1085C28.6338 13.1081 28.2125 13.1078 27.7913 13.1076L25.3977 13.107C21.5682 13.106 17.7387 13.1051 13.9093 13.1044H13.9089C13.6662 13.0873 13.4265 13.1654 13.2413 13.322C13.158 13.4075 13.0937 13.5094 13.0525 13.621C13.0112 13.7327 12.994 13.8516 13.0018 13.9703C13.0012 19.9237 13.0011 27.2407 13.0019 33.1942C13.0019 33.7707 13.3249 34.0882 13.9112 34.0882C15.2708 34.0883 16.6303 34.0883 17.9895 34.0883C20.318 34.0883 22.6467 34.0882 24.9756 34.0881L29.0325 34.088C31.3683 34.088 33.7041 34.0878 36.04 34.0876C36.71 34.0874 36.996 33.8018 36.996 33.1324L36.9959 30.4892C36.9956 26.8797 36.9954 21.7835 36.9996 18.1126ZM35.3523 32.4555H14.6488V14.7404H31.8816L31.8815 15.6265C31.8814 16.3485 31.8815 17.0705 31.8818 17.7924C31.8821 18.4094 32.2005 18.7223 32.8281 18.7225C33.4765 18.7226 34.1249 18.7226 34.7829 18.7226L35.3523 18.7226V32.4555Z" fill="white"/>
</svg>
