<svg width="59" height="59" viewBox="0 0 59 59" fill="none" xmlns="http://www.w3.org/2000/svg">
<circle cx="29.5" cy="29.5" r="29.5" fill="#FFD7DF"/>
<path d="M45.7041 26.428C44.2949 24.1362 42.0815 22.4517 39.4961 21.7034C40.3604 21.0606 41 20.162 41.3241 19.1352C41.6482 18.1084 41.6403 17.0056 41.3015 15.9835C40.9627 14.9615 40.3102 14.0721 39.4368 13.4418C38.5633 12.8114 37.5133 12.4721 36.4359 12.4721C35.3586 12.4721 34.3086 12.8114 33.4351 13.4418C32.5617 14.0721 31.9092 14.9615 31.5704 15.9835C31.2316 17.0056 31.2237 18.1084 31.5478 19.1352C31.8719 20.162 32.5115 21.0606 33.3758 21.7034L33.0716 21.8028C31.9603 20.8752 30.5584 20.367 29.1104 20.367C27.6624 20.367 26.2605 20.8752 25.1492 21.8028L24.8508 21.7093C25.7169 21.0663 26.3582 20.1667 26.6834 19.1386C27.0087 18.1105 27.0013 17.0061 26.6624 15.9823C26.3236 14.9586 25.6704 14.0677 24.7958 13.4362C23.9212 12.8047 22.8697 12.4648 21.7907 12.4648C20.7117 12.4648 19.6602 12.8047 18.7856 13.4362C17.911 14.0677 17.2578 14.9586 16.919 15.9823C16.5801 17.0061 16.5727 18.1105 16.898 19.1386C17.2232 20.1667 17.8645 21.0663 18.7306 21.7093C16.1476 22.4594 13.9366 24.1436 12.5284 26.4339C12.0691 27.1808 11.901 28.0706 12.0565 28.9334C12.2119 29.7963 12.6798 30.5717 13.371 31.1117C15.6148 32.8207 18.3285 33.8022 21.1471 33.9242C19.7887 34.9348 18.6333 36.1925 17.7418 37.6314C17.1956 38.5206 16.9964 39.5798 17.182 40.6066C17.3676 41.6334 17.9252 42.5558 18.7481 43.1979C21.7256 45.4665 25.3662 46.6953 29.1104 46.6953C32.8546 46.6953 36.4951 45.4665 39.4727 43.1979C40.2956 42.5558 40.8532 41.6334 41.0388 40.6066C41.2244 39.5798 41.0252 38.5206 40.479 37.6314C39.5874 36.1925 38.4321 34.9348 37.0737 33.9242C39.897 33.8029 42.6151 32.8192 44.8615 31.1058C45.5537 30.5667 46.0225 29.7912 46.178 28.928C46.3335 28.0647 46.1647 27.1746 45.7041 26.428ZM32.7673 17.6045C32.7662 16.8799 32.9799 16.1712 33.3816 15.5679C33.7832 14.9646 34.3547 14.4938 35.0239 14.2149C35.6932 13.936 36.4301 13.8616 37.1416 14.0009C37.8532 14.1403 38.5074 14.4873 39.0218 14.998C39.5361 15.5088 39.8875 16.1604 40.0315 16.8706C40.1755 17.5808 40.1057 18.3176 39.8309 18.9882C39.5561 19.6588 39.0886 20.2329 38.4875 20.6381C37.8864 21.0433 37.1786 21.2614 36.4535 21.2649H36.4184C35.4495 21.2603 34.5217 20.8728 33.8377 20.187C33.1536 19.5012 32.7689 18.5728 32.7673 17.6045ZM29.1104 21.8321C30.0466 21.8321 30.9618 22.1095 31.7402 22.6293C32.5186 23.1491 33.1253 23.8879 33.4836 24.7522C33.8419 25.6166 33.9356 26.5678 33.753 27.4854C33.5703 28.403 33.1195 29.2459 32.4575 29.9074C31.7955 30.569 30.9521 31.0195 30.0339 31.202C29.1156 31.3846 28.1639 31.2909 27.299 30.9328C26.434 30.5748 25.6947 29.9685 25.1746 29.1906C24.6545 28.4127 24.3769 27.4981 24.3769 26.5625C24.3784 25.3084 24.8776 24.1061 25.765 23.2193C26.6524 22.3325 27.8555 21.8336 29.1104 21.8321ZM18.1279 17.6045C18.1268 16.8799 18.3405 16.1712 18.7422 15.5679C19.1438 14.9646 19.7153 14.4938 20.3845 14.2149C21.0538 13.936 21.7907 13.8616 22.5022 14.0009C23.2138 14.1403 23.868 14.4873 24.3824 14.998C24.8967 15.5088 25.2481 16.1604 25.3921 16.8706C25.5361 17.5808 25.4663 18.3176 25.1915 18.9882C24.9167 19.6588 24.4492 20.2329 23.8481 20.6381C23.247 21.0433 22.5392 21.2614 21.8141 21.2649H21.779C20.8106 21.2587 19.8837 20.8707 19.2 20.1853C18.5163 19.4998 18.131 18.5723 18.1279 17.6045ZM21.7966 32.5033C19.0699 32.502 16.4203 31.5995 14.2604 29.9364C13.8575 29.6194 13.585 29.1658 13.4944 28.6614C13.4038 28.1571 13.5015 27.6371 13.7689 27.1999C14.6076 25.8299 15.785 24.6987 17.1879 23.9153C18.5908 23.1319 20.1719 22.7225 21.779 22.7267H21.8141C22.5659 22.7285 23.3146 22.8228 24.0434 23.0074C23.566 23.6839 23.2296 24.4495 23.0542 25.2586C22.8789 26.0677 22.8681 26.9038 23.0226 27.7172C23.1771 28.5305 23.4936 29.3045 23.9535 29.9931C24.4133 30.6817 25.007 31.2709 25.6992 31.7256C25.1596 31.8658 24.6299 32.0416 24.1136 32.2519C23.3509 32.4083 22.5751 32.4925 21.7966 32.5033ZM39.2328 38.3915C39.5911 38.9699 39.7236 39.66 39.6049 40.3299C39.4862 40.9998 39.1245 41.6024 38.5891 42.0226C35.8655 44.0978 32.5353 45.2217 29.1104 45.2217C25.6855 45.2217 22.3553 44.0978 19.6317 42.0226C19.0963 41.6024 18.7346 40.9998 18.6159 40.3299C18.4972 39.66 18.6297 38.9699 18.988 38.3915C20.0547 36.6676 21.5445 35.2446 23.3161 34.2578C25.0877 33.271 27.0822 32.753 29.1104 32.753C31.1386 32.753 33.1331 33.271 34.9047 34.2578C36.6763 35.2446 38.1661 36.6676 39.2328 38.3915ZM43.9721 29.9305C41.8136 31.5969 39.1635 32.5016 36.4359 32.5033C35.6503 32.5028 34.8665 32.4264 34.0955 32.2753C33.5824 32.0686 33.0567 31.8948 32.5216 31.7549C33.2138 31.3002 33.8075 30.711 34.2673 30.0224C34.7272 29.3337 35.0437 28.5597 35.1982 27.7464C35.3527 26.9331 35.3419 26.097 35.1666 25.2879C34.9912 24.4788 34.6548 23.7132 34.1774 23.0366C34.9102 22.8523 35.6628 22.7581 36.4184 22.7559H36.4535C38.0596 22.7528 39.6395 23.1626 41.0413 23.946C42.4431 24.7293 43.6196 25.86 44.4578 27.2291C44.7197 27.6613 44.8149 28.1741 44.7255 28.6715C44.6361 29.1688 44.3682 29.6165 43.9721 29.9305Z" fill="#FF0000"/>
</svg>
