<svg width="59" height="59" viewBox="0 0 59 59" fill="none" xmlns="http://www.w3.org/2000/svg">
<circle cx="29.5" cy="29.5" r="29.5" fill="#E6E7FD"/>
<path d="M37.6317 20.8275C35.4597 18.6569 32.5718 17.4614 29.5 17.4614C26.4282 17.4614 23.5403 18.6569 21.3683 20.8275C19.1962 22.9982 18 25.8842 18 28.9539C18 32.0237 19.1962 34.9097 21.3683 37.0803C23.5403 39.2509 26.4282 40.4464 29.5 40.4464C32.5718 40.4464 35.4597 39.2509 37.6317 37.0803C39.8038 34.9097 41 32.0237 41 28.9539C41 25.8842 39.8038 22.9982 37.6317 20.8275ZM34.8897 22.401L35.3953 20.3022C37.4084 21.6764 38.9194 23.7331 39.592 26.1363L39.3272 26.1872C38.9318 26.2632 38.6135 26.5647 38.5165 26.9554L38.4138 27.3692C38.4127 27.3739 38.4119 27.377 38.4044 27.3796C38.397 27.3823 38.3944 27.3804 38.3906 27.3775L37.777 26.9177C37.4589 26.6793 37.0259 26.6443 36.6738 26.8286L35.9081 27.2292C35.5408 27.4214 35.3285 27.7976 35.354 28.2112C35.3796 28.6247 35.6365 28.972 36.0247 29.1177L36.061 29.1313C36.0652 29.1328 36.0683 29.134 36.0702 29.1415C36.0721 29.149 36.07 29.1514 36.0669 29.1548L35.59 29.703C35.5852 29.7085 35.5769 29.7098 35.5707 29.7057L34.285 28.8767C33.9902 28.6866 33.6227 28.658 33.3021 28.8003C32.9814 28.9426 32.7561 29.2341 32.6995 29.5801L32.6003 30.1858C32.5442 30.5277 32.6619 30.8732 32.9151 31.11L33.5856 31.737C33.5909 31.742 33.5919 31.7499 33.5879 31.756L32.4951 33.4114C32.3912 33.5689 32.3321 33.7519 32.3246 33.9406L32.2297 36.3106C32.2296 36.3143 32.228 36.3179 32.2253 36.3205L30.77 37.746C30.7652 37.7507 30.7578 37.7516 30.7521 37.7483L29.8085 37.1959C29.8049 37.1937 29.8023 37.1902 29.8015 37.1862C29.8015 37.1862 29.3437 35.1102 29.3266 35.0642L28.9104 33.9478C28.7713 33.5749 28.4251 33.3116 28.0284 33.2772L26.1237 33.1116C26.1189 33.1112 26.1146 33.1085 26.1121 33.1043L25.0285 31.2371C25.0268 31.2342 25.0262 31.2308 25.0267 31.2275L25.2992 29.4167C25.2998 29.4128 25.3018 29.4093 25.3049 29.407L26.9687 28.1525C26.9729 28.1493 26.9785 28.1487 26.9834 28.1506L28.5955 28.8228C28.6873 28.861 28.7839 28.8858 28.8826 28.8965L31.1155 29.1391C31.3701 29.1667 31.624 29.0999 31.8318 28.9511L33.3111 27.8914C33.7097 27.6059 33.8538 27.0739 33.6539 26.6265L33.5166 26.3195C33.3574 25.9632 33.0163 25.7287 32.6265 25.7074L28.4718 25.48C28.4695 25.4799 28.4673 25.4792 28.4653 25.4781C28.4611 25.4757 28.4588 25.4738 28.4586 25.4738C28.4566 25.4691 28.4581 25.4574 28.4605 25.4541C28.4611 25.4537 28.4637 25.4523 28.4688 25.4509L29.7161 25.1149C29.8811 25.0705 30.0339 24.9851 30.1581 24.868L31.6834 23.4295C31.6857 23.4273 31.6888 23.4259 31.692 23.4256L33.9877 23.1893C34.4245 23.1444 34.7869 22.8277 34.8897 22.401ZM27.1137 21.5576L27.9718 19.9434C28.0987 19.7047 28.1386 19.4276 28.0843 19.1629L27.9678 18.5953C28.4681 18.5217 28.9795 18.483 29.5 18.483C30.0248 18.483 30.5407 18.5223 31.045 18.5971C31.045 18.5971 30.9221 18.7314 30.9008 18.7399L29.6854 19.2271C29.5117 19.2968 29.3556 19.4087 29.2338 19.5508L27.3401 21.7628C27.3143 21.7929 27.2769 21.8111 27.2372 21.8128C27.1771 21.8155 27.1399 21.7823 27.1226 21.763C27.0552 21.6881 27.1071 21.5701 27.1137 21.5576ZM22.646 21.0402V22.5728C22.646 23.0008 22.4313 23.3951 22.072 23.628L20.9716 24.3416C20.7166 24.5071 20.5004 24.718 20.3291 24.9688L19.3303 26.4314C19.8586 24.3047 21.0386 22.4325 22.646 21.0402ZM23.314 36.1181L23.1693 37.2915C21.5309 36.0461 20.269 34.3305 19.5874 32.3475H20.2381C20.3179 32.3475 20.3915 32.3879 20.4344 32.4548L21.7495 34.5025C21.8088 34.5944 21.8793 34.6782 21.9601 34.7517L23.2394 35.9178C23.2951 35.9684 23.3232 36.0435 23.314 36.1181ZM29.5 39.4248C27.5343 39.4248 25.6935 38.8806 24.1198 37.9356L24.3286 36.2432C24.3782 35.8402 24.2284 35.4362 23.9284 35.1629C23.9284 35.1629 22.621 33.9677 22.6097 33.9508L21.2946 31.9031C21.0625 31.5415 20.6675 31.3259 20.2381 31.3259H19.2934C19.1161 30.5635 19.0222 29.7694 19.0222 28.9539C19.0222 28.8658 19.0234 28.7781 19.0255 28.6906L21.1735 25.545C21.268 25.4061 21.3871 25.2896 21.5282 25.1982L22.6281 24.4852C23.2792 24.0633 23.6682 23.3482 23.6682 22.5728V20.2589C24.6605 19.5921 25.7727 19.0907 26.965 18.7935L27.0829 19.3682C27.0896 19.4007 27.0847 19.4348 27.0691 19.4641L26.211 21.0783C26.1574 21.1791 26.0879 21.4441 26.0879 21.4441C26.0182 21.7966 26.1124 22.1552 26.3465 22.428C26.5697 22.6881 26.8894 22.8346 27.2301 22.8346C27.2467 22.8346 27.7409 22.8587 28.1168 22.427L30.0105 20.2151C30.0255 20.1976 30.0447 20.1838 30.066 20.1753L31.2814 19.6881C31.4542 19.6189 31.6097 19.5077 31.7311 19.3666L32.1899 18.8335C32.9974 19.0481 33.7672 19.3562 34.4861 19.7466C34.4743 19.7737 33.8958 22.162 33.8958 22.162C33.8943 22.1681 33.8891 22.1726 33.8829 22.1733L31.5871 22.4095C31.3615 22.4328 31.1464 22.5312 30.9816 22.6867L29.4562 24.1252C29.4545 24.1268 29.4524 24.1281 29.45 24.1286L28.2026 24.4646C27.7957 24.5742 27.4979 24.915 27.444 25.3327C27.3901 25.7504 27.5916 26.1555 27.9574 26.3648C28.0969 26.4445 28.2554 26.4913 28.4158 26.5001L32.5705 26.7274C32.576 26.7277 32.5809 26.7311 32.5832 26.7362L32.7204 27.0431C32.7232 27.0494 32.7212 27.0571 32.7154 27.0611L31.2361 28.1208C31.2331 28.123 31.2296 28.1239 31.2259 28.1235L28.989 27.88L27.377 27.2079C27.0383 27.0667 26.6461 27.1162 26.3531 27.3371L24.6893 28.5916C24.4714 28.7559 24.329 28.995 24.2885 29.2647L24.0159 31.0756C23.981 31.3074 24.0267 31.5468 24.1443 31.7496L25.228 33.6168C25.3972 33.9086 25.699 34.1002 26.0352 34.1294L27.94 34.295C27.9457 34.2955 27.9506 34.2992 27.9526 34.3046L28.3694 35.423L28.8029 37.4046C28.8646 37.6864 29.0428 37.9316 29.2918 38.0774L30.2355 38.6299C30.3981 38.7251 30.5789 38.7714 30.7586 38.7714C31.0239 38.7714 31.2869 38.6703 31.4856 38.4757L32.9408 37.0502C33.1304 36.8645 33.2406 36.6164 33.2512 36.3515L33.346 33.9816C33.3461 33.9789 33.3469 33.9762 33.3485 33.9741L34.4413 32.3186C34.7204 31.8957 34.6543 31.3374 34.2841 30.9913L33.6135 30.3643C33.6099 30.3609 33.6083 30.356 33.609 30.3511L33.7083 29.7453C33.7091 29.7404 33.7095 29.7375 33.7169 29.7342C33.724 29.7309 33.7267 29.7326 33.7309 29.7353L35.0165 30.5642C35.4469 30.8418 36.025 30.7599 36.3613 30.3735L36.8383 29.8254C37.0612 29.5693 37.1444 29.22 37.0611 28.891C36.9777 28.562 36.7383 28.2944 36.4202 28.1751L36.3839 28.1615C36.3792 28.1597 36.3769 28.1582 36.3768 28.1582C36.3739 28.1543 36.3733 28.1427 36.3752 28.139C36.3757 28.1385 36.3779 28.1367 36.3822 28.1344L37.1479 27.7338C37.153 27.7311 37.1591 27.7316 37.1637 27.735L37.7773 28.1949C38.0562 28.404 38.4189 28.459 38.7473 28.3421C39.0758 28.2252 39.322 27.9535 39.4059 27.6153L39.5087 27.2015C39.51 27.196 39.5146 27.1916 39.5203 27.1905L39.8189 27.1332C39.9232 27.7247 39.9779 28.3331 39.9779 28.954C39.9778 34.7276 35.2774 39.4248 29.5 39.4248Z" fill="#6C7AFF"/>
</svg>
