<svg width="50" height="50" viewBox="0 0 50 50" fill="none" xmlns="http://www.w3.org/2000/svg">
<circle cx="25" cy="25" r="25" fill="#FD5E7B"/>
<path fill-rule="evenodd" clip-rule="evenodd" d="M35.6514 34.6936H32.5195V29.7476C32.5195 29.6575 32.4422 29.5802 32.339 29.5802C32.2488 29.5802 32.1715 29.6575 32.1715 29.7476V34.6936H21.7316V29.7476C21.7316 29.6575 21.6543 29.5802 21.5641 29.5802C21.461 29.5802 21.3836 29.6575 21.3836 29.7476V34.6936H18.2517C18.0584 34.6936 17.9037 34.5391 17.9037 34.3459V30.3143C17.9037 29.1294 18.4579 28.0217 19.4632 27.1844C20.4557 26.373 21.7574 25.9351 23.1494 25.9351H24.5671L24.6703 25.5615C25.2374 25.8835 25.8947 26.0639 26.5907 26.0639H27.3124C27.9955 26.0639 28.6529 25.8835 29.2329 25.5615L29.336 25.9351H30.7151C33.6279 25.9351 35.9994 27.8929 35.9994 30.3143V34.3459C35.9994 34.5391 35.8448 34.6936 35.6514 34.6936Z" fill="white"/>
<path fill-rule="evenodd" clip-rule="evenodd" d="M27.3133 25.716H26.5915C24.568 25.716 22.9312 24.0802 22.9312 22.0709V17.859C22.9312 17.6658 23.0858 17.5112 23.2791 17.5112H30.6257C30.819 17.5112 30.9737 17.6658 30.9737 17.859V22.0709C30.9737 23.0369 30.587 23.9385 29.8911 24.634C29.1951 25.3296 28.28 25.716 27.3133 25.716ZM23.6271 18.2068V22.0709C23.6271 23.6938 24.9547 25.0333 26.5915 25.0333H27.3133C28.9244 25.0333 30.2777 23.668 30.2777 22.0709V18.2068H23.6271Z" fill="white"/>
<path fill-rule="evenodd" clip-rule="evenodd" d="M31.3092 22.0212H30.6261C30.4327 22.0212 30.2781 21.8665 30.2781 21.6861V19.6239C30.2781 19.4305 30.4327 19.2759 30.6261 19.2759H31.3092C31.8892 19.2759 32.3403 19.727 32.3403 20.307V20.9901C32.3403 21.5701 31.8892 22.0212 31.3092 22.0212ZM30.9741 21.3381H31.3092C31.5154 21.3381 31.6572 21.1963 31.6572 20.9901V20.307C31.6572 20.1136 31.5154 19.959 31.3092 19.959H30.9741V21.3381Z" fill="white"/>
<path fill-rule="evenodd" clip-rule="evenodd" d="M23.2799 22.0212H22.5968C22.0168 22.0212 21.5657 21.5701 21.5657 20.9901V20.307C21.5657 19.727 22.0168 19.2759 22.5968 19.2759H23.2799C23.4732 19.2759 23.6279 19.4305 23.6279 19.6239V21.6861C23.6279 21.8665 23.4732 22.0212 23.2799 22.0212ZM22.5968 19.959C22.3906 19.959 22.2488 20.1136 22.2488 20.307V20.9901C22.2488 21.1963 22.3906 21.3381 22.5968 21.3381H22.9319V19.959H22.5968Z" fill="white"/>
<path fill-rule="evenodd" clip-rule="evenodd" d="M30.6257 18.2099H23.2791C23.0858 18.2099 22.9312 18.0552 22.9312 17.8619C22.9312 15.8512 24.568 14.2144 26.5915 14.2144H27.3133C28.28 14.2144 29.1951 14.5881 29.8911 15.2841C30.587 15.9801 30.9737 16.8952 30.9737 17.8619C30.9737 18.0552 30.819 18.2099 30.6257 18.2099Z" fill="white"/>
<path fill-rule="evenodd" clip-rule="evenodd" d="M19.3746 22.5344H15.9333C15.74 22.5344 15.5853 22.3798 15.5853 22.1995V21.5555C15.5595 21.1176 15.5209 20.744 15.4564 20.4349H19.8644C19.7741 20.8857 19.7097 21.4525 19.7097 22.1995C19.7097 22.3798 19.555 22.5344 19.3746 22.5344ZM15.3662 20.0872C15.1858 19.4431 14.928 19.0696 14.696 18.7218C14.3351 18.2066 14 17.7172 14 16.661C14 15.6692 14.3867 14.7547 15.0827 14.0463C15.7658 13.3508 16.6809 12.9644 17.6475 12.9644C19.6839 12.9644 21.3466 14.6259 21.3466 16.661C21.3466 17.7172 20.9857 18.2324 20.6377 18.7347C20.3928 19.0825 20.135 19.456 19.9546 20.0872H15.3662Z" fill="white"/>
<path fill-rule="evenodd" clip-rule="evenodd" d="M19.5808 23.7453H15.7657C15.5724 23.7453 15.4177 23.5906 15.4177 23.3973C15.4177 23.204 15.5724 23.0493 15.7657 23.0493H19.5808C19.7741 23.0493 19.9288 23.204 19.9288 23.3973C19.9288 23.5906 19.7741 23.7453 19.5808 23.7453Z" fill="white"/>
<path fill-rule="evenodd" clip-rule="evenodd" d="M19.244 24.9438H16.0991C15.9187 24.9438 15.764 24.7892 15.764 24.5958C15.764 24.4154 15.9187 24.2607 16.0991 24.2607H19.244C19.4244 24.2607 19.5791 24.4154 19.5791 24.5958C19.5791 24.7892 19.4244 24.9438 19.244 24.9438Z" fill="white"/>
<path fill-rule="evenodd" clip-rule="evenodd" d="M18.9898 26.1025H16.3605C16.1801 26.1025 16.0254 25.9479 16.0254 25.7545C16.0254 25.5741 16.1801 25.4194 16.3605 25.4194H18.9898C19.1702 25.4194 19.3249 25.5741 19.3249 25.7545C19.3249 25.9479 19.1702 26.1025 18.9898 26.1025Z" fill="white"/>
</svg>
