<svg width="50" height="50" viewBox="0 0 50 50" fill="none" xmlns="http://www.w3.org/2000/svg">
<circle cx="25" cy="25" r="25" fill="#906AFD"/>
<path fill-rule="evenodd" clip-rule="evenodd" d="M35.2383 30.8967H15.3008C15.1289 30.8967 15 30.7679 15 30.5962V17.7998C15 17.4134 15.3008 17.1128 15.7305 17.1128H24.0234C24.1953 17.1128 24.3242 17.2416 24.3242 17.4134C24.3242 17.5851 24.1953 17.714 24.0234 17.714H15.7305C15.6875 17.714 15.6016 17.714 15.6016 17.7998V30.2956H34.9375V17.7998C34.9375 17.7569 34.8945 17.714 34.8516 17.714H33.6055C33.4336 17.714 33.3047 17.5851 33.3047 17.4134C33.3047 17.2416 33.4336 17.1128 33.6055 17.1128H34.8516C35.2383 17.1128 35.5391 17.4134 35.5391 17.7998V30.5962C35.5391 30.7679 35.4102 30.8967 35.2383 30.8967Z" fill="white"/>
<path fill-rule="evenodd" clip-rule="evenodd" d="M35.2383 28.3203H15.3008C15.1289 28.3203 15 28.1914 15 28.0195C15 27.8477 15.1289 27.7188 15.3008 27.7188H35.2383C35.4102 27.7188 35.5391 27.8477 35.5391 28.0195C35.5391 28.1914 35.4102 28.3203 35.2383 28.3203Z" fill="white"/>
<path fill-rule="evenodd" clip-rule="evenodd" d="M26.2578 33.0024H23.9375C23.7656 33.0024 23.6367 32.8735 23.6367 32.7017V30.5962C23.6367 30.4243 23.7656 30.2954 23.9375 30.2954H26.2578C26.4297 30.2954 26.5586 30.4243 26.5586 30.5962V32.7017C26.5586 32.8735 26.4297 33.0024 26.2578 33.0024ZM24.2383 32.4009H25.957V30.897H24.2383V32.4009Z" fill="white"/>
<path fill-rule="evenodd" clip-rule="evenodd" d="M30.2969 35.0205H19.9414C19.7695 35.0205 19.6406 34.8916 19.6406 34.7197V33.6885C19.6406 33.001 20.2852 32.3994 20.9727 32.3994H29.2656C29.9531 32.3994 30.5977 33.001 30.5977 33.6885V34.7197C30.5977 34.8916 30.4688 35.0205 30.2969 35.0205ZM20.2422 34.4189H29.9961V33.6885C29.9961 33.3447 29.6523 33.001 29.2656 33.001H20.9727C20.5859 33.001 20.2422 33.3447 20.2422 33.6885V34.4189Z" fill="white"/>
<path fill-rule="evenodd" clip-rule="evenodd" d="M24.2383 28.3235H17.2773C17.1055 28.3235 16.9766 28.1945 16.9766 28.0227V26.175C16.9766 25.0149 17.9219 24.0695 19.0391 24.0695H19.3828L19.5117 23.468C19.5547 23.2961 19.7266 23.2102 19.8984 23.2531C20.0703 23.2961 20.1562 23.468 20.1133 23.6399L19.8984 24.4563C19.8555 24.5852 19.7266 24.6711 19.5977 24.6711H19.0391C18.2656 24.6711 17.5781 25.3586 17.5781 26.175V27.7219H23.9375V26.175C23.9375 25.3586 23.293 24.6711 22.5195 24.6711H21.918C21.7891 24.6711 21.6602 24.5852 21.6172 24.4133L21.4453 23.5969C21.4023 23.468 21.5312 23.2961 21.7031 23.2531C21.832 23.2102 22.0039 23.3391 22.0469 23.5109L22.1758 24.0695H22.5195C23.6367 24.0695 24.5391 25.0149 24.5391 26.175V28.0227C24.5391 28.1945 24.4102 28.3235 24.2383 28.3235Z" fill="white"/>
<path fill-rule="evenodd" clip-rule="evenodd" d="M20.7997 24.1138C20.37 24.1138 19.9403 23.9849 19.5966 23.77C18.9091 23.3403 18.5653 22.6099 18.6513 21.7075C18.6943 21.5786 18.8232 21.4497 18.995 21.4497C19.1669 21.4927 19.2528 21.6216 19.2528 21.7935C19.1669 22.6099 19.5536 23.0396 19.8974 23.2544C20.456 23.5981 21.2294 23.5552 21.788 23.2114C22.0888 22.9966 22.4325 22.6099 22.3036 21.7935C22.3036 21.6216 22.3896 21.4927 22.5614 21.4497C22.7333 21.4497 22.8622 21.5356 22.9052 21.7075C23.0341 22.5669 22.7333 23.2974 22.0888 23.7271C21.745 23.9849 21.2724 24.1138 20.7997 24.1138Z" fill="white"/>
<path fill-rule="evenodd" clip-rule="evenodd" d="M20.7592 25.4871C20.7592 25.4871 20.7592 25.4871 20.7162 25.4871C19.8998 25.4441 19.3842 24.5418 19.3412 24.4988C19.2553 24.3699 19.2982 24.198 19.4272 24.1121C19.599 24.0262 19.7709 24.0691 19.8568 24.198C19.9857 24.4129 20.3295 24.8855 20.7592 24.8855C21.06 24.8855 21.3607 24.6707 21.6615 24.198C21.7475 24.0691 21.9623 24.0262 22.0912 24.1121C22.2201 24.198 22.2631 24.4129 22.1772 24.5418C21.7475 25.1863 21.2748 25.4871 20.7592 25.4871Z" fill="white"/>
<path fill-rule="evenodd" clip-rule="evenodd" d="M18.7383 28.3213C18.5664 28.3213 18.4375 28.1924 18.4375 28.0205V26.5166C18.4375 26.3447 18.5664 26.2158 18.7383 26.2158C18.9102 26.2158 19.0391 26.3447 19.0391 26.5166V28.0205C19.0391 28.1924 18.9102 28.3213 18.7383 28.3213Z" fill="white"/>
<path fill-rule="evenodd" clip-rule="evenodd" d="M22.8203 28.3213C22.6484 28.3213 22.5195 28.1924 22.5195 28.0205V26.5166C22.5195 26.3447 22.6484 26.2158 22.8203 26.2158C22.9922 26.2158 23.1211 26.3447 23.1211 26.5166V28.0205C23.1211 28.1924 22.9922 28.3213 22.8203 28.3213Z" fill="white"/>
<path fill-rule="evenodd" clip-rule="evenodd" d="M22.7784 23.0845C22.7784 23.0845 22.7784 23.0845 22.7354 23.0845C22.4776 23.0415 22.4776 22.7837 22.4776 22.5688C22.4776 22.4399 22.4347 22.0532 22.3917 21.9673C22.3487 21.9673 22.3487 21.9243 22.3487 21.9243C22.3487 21.9243 22.2628 21.7524 22.2198 21.5806C22.1768 21.6235 22.1768 21.6235 22.1768 21.6235C21.919 21.7524 21.4464 21.9673 20.7589 21.9243C20.0284 21.9673 19.5987 21.7524 19.3839 21.6235C19.3409 21.5806 19.3409 21.5806 19.3409 21.5806C19.255 21.7954 19.169 21.9243 19.169 21.9673C19.0831 22.0532 19.0831 22.397 19.0831 22.5688C19.0401 22.7837 19.0401 23.0415 18.7823 23.0845C18.6964 23.0845 18.5245 23.0415 18.3956 22.8267C18.3956 22.7837 18.3526 22.6978 18.3097 22.5688L18.1807 22.0103C18.1807 21.9673 18.1807 21.9673 18.1807 21.9673C18.0089 20.6782 18.2667 19.9907 18.3097 19.9478C18.6534 19.0454 19.6417 18.4868 20.8018 18.4868C21.919 18.4868 22.9073 19.0454 23.294 19.9478C23.294 19.9907 23.294 19.9907 23.294 20.0337C23.4659 21.1509 23.4229 21.6235 23.2081 22.5259C23.1651 22.6548 23.1222 22.7407 23.1222 22.7837C23.0362 22.9985 22.9073 23.0845 22.7784 23.0845ZM20.8018 19.0884C19.8565 19.0884 19.1261 19.5181 18.8682 20.2056C18.8682 20.2056 18.6964 20.6353 18.7393 21.4517C18.7393 21.4517 18.7393 21.4517 18.7393 21.4087L18.7823 21.3657C18.8253 21.1938 18.9542 21.022 19.1261 20.979C19.3409 20.8931 19.5128 21.022 19.6417 21.0649C19.8565 21.1938 20.1573 21.3657 20.7589 21.3228C21.3175 21.3657 21.6612 21.1938 21.8761 21.0649C22.0479 20.979 22.2198 20.8931 22.4347 20.979C22.6065 21.0649 22.6925 21.1938 22.6925 21.2798C22.7354 21.3228 22.7784 21.4087 22.7784 21.4517C22.8214 21.0649 22.7784 20.7212 22.6925 20.1626C22.4347 19.5181 21.6612 19.0884 20.8018 19.0884Z" fill="white"/>
<path fill-rule="evenodd" clip-rule="evenodd" d="M33.1758 29.6089H32.1016C31.9297 29.6089 31.8008 29.48 31.8008 29.3081C31.8008 29.1362 31.9297 29.0073 32.1016 29.0073H33.1758C33.3477 29.0073 33.4766 29.1362 33.4766 29.3081C33.4766 29.48 33.3477 29.6089 33.1758 29.6089Z" fill="white"/>
<path fill-rule="evenodd" clip-rule="evenodd" d="M25.4414 21.7931C25.3984 21.7931 25.3555 21.7931 25.3125 21.7502C25.1836 21.7072 25.1406 21.6213 25.1406 21.4925V19.5602H24.3242C24.0234 19.5602 23.7227 19.2596 23.7227 18.959V13.6344C23.7227 13.2908 24.0234 13.0332 24.3242 13.0332H33.3047C33.6484 13.0332 33.9062 13.2908 33.9062 13.6344V18.959C33.9062 19.2596 33.6484 19.5602 33.3047 19.5602H28.4062L25.6133 21.7502C25.5703 21.7502 25.4844 21.7931 25.4414 21.7931ZM24.3672 18.959H25.4414C25.6133 18.959 25.7422 19.0878 25.7422 19.2596V20.8913L28.1484 19.002C28.1914 18.959 28.2344 18.959 28.3203 18.959H33.3047V13.6344H24.3242V18.9161L24.3672 18.959Z" fill="white"/>
<path fill-rule="evenodd" clip-rule="evenodd" d="M31.8438 15.3965H25.8281C25.6562 15.3965 25.5273 15.2676 25.5273 15.0957C25.5273 14.9238 25.6562 14.7949 25.8281 14.7949H31.8438C32.0156 14.7949 32.1445 14.9238 32.1445 15.0957C32.1445 15.2676 32.0156 15.3965 31.8438 15.3965Z" fill="white"/>
<path fill-rule="evenodd" clip-rule="evenodd" d="M31.8438 16.5977H25.8281C25.6562 16.5977 25.5273 16.4688 25.5273 16.2969C25.5273 16.125 25.6562 15.9961 25.8281 15.9961H31.8438C32.0156 15.9961 32.1445 16.125 32.1445 16.2969C32.1445 16.4688 32.0156 16.5977 31.8438 16.5977Z" fill="white"/>
<path fill-rule="evenodd" clip-rule="evenodd" d="M31.8438 17.7568H25.8281C25.6562 17.7568 25.5273 17.6279 25.5273 17.4561C25.5273 17.2842 25.6562 17.1553 25.8281 17.1553H31.8438C32.0156 17.1553 32.1445 17.2842 32.1445 17.4561C32.1445 17.6279 32.0156 17.7568 31.8438 17.7568Z" fill="white"/>
</svg>
